<svg xmlns="http://www.w3.org/2000/svg" width="32" height="32" viewBox="0 0 24 24" fill="none" stroke="currentColor" stroke-width="2" stroke-linecap="round" stroke-linejoin="round">
  <path d="M12 20c-3.3 0-6-2.7-6-6v-3a4 4 0 0 1 4-4h4a4 4 0 0 1 4 4v3c0 3.3-2.7 6-6 6Z" fill="#818cf8" stroke="none"/>
  <path d="M12 20v-9" stroke="#111827" stroke-width="1.5"/>
  <path d="m8 2 1.88 1.88" stroke="#9ca3af"/>
  <path d="M14.12 3.88 16 2" stroke="#9ca3af"/>
  <path d="M9 7.13v-1a3.003 3.003 0 1 1 6 0v1" fill="#4f46e5" stroke="none"/>
  <path d="M6.53 9C4.6 9 3 7.4 3 5.5S4.6 2 6.5 2" stroke="#9ca3af"/>
  <path d="M17.47 9c1.9 0 3.5-1.6 3.5-3.5S19.4 2 17.5 2" stroke="#9ca3af"/>
  <path d="M21 16h-3" stroke="#9ca3af"/>
  <path d="M6 16H3" stroke="#9ca3af"/>
  <path d="M10 13l-2 2 2 2" stroke="#ffffff" stroke-width="1.5"/>
  <path d="M14 13l2 2-2 2" stroke="#ffffff" stroke-width="1.5"/>
</svg>